<svg version="1.1" id="doctor" xmlns="http://www.w3.org/2000/svg" xmlns:xlink="http://www.w3.org/1999/xlink" x="0px" y="0px"
	 width="324px" height="325px" viewBox="0 0 324 325" enable-background="new 0 0 324 325" xml:space="preserve">
<g id="medical_parts">
	<path fill="none" stroke="#000000" stroke-width="13.7493" stroke-linecap="round" stroke-linejoin="round" d="M141.114,12h45.645
		c24.223,0,43.866,19.637,43.866,43.859v102.294c0,24.222-19.644,43.866-43.866,43.866h-45.645
		c-24.229,0-43.859-19.645-43.859-43.866V55.859C97.254,31.637,116.885,12,141.114,12z"/>
	<path fill="none" stroke="#000000" stroke-width="13.7493" stroke-linecap="round" stroke-linejoin="round" d="M113.199,194.594
		v28.452c0,15.187-12.319,27.499-27.499,27.499"/>
	<path fill="none" stroke="#000000" stroke-width="13.7493" stroke-linecap="round" stroke-linejoin="round" d="M214.674,194.594
		v28.452c0,15.187,12.313,27.499,27.498,27.499"/>
	<path fill="none" stroke="#000000" stroke-width="13.7493" stroke-linecap="round" stroke-linejoin="round" d="M84.324,250.41
		c0,0-45.664,1.41-60.994,15s-5,46.59-5,46.59h291.34c0,0,10.003-33.18-5-46.59s-60.994-15-60.994-15"/>
	<path fill="none" stroke="#000000" stroke-width="13.7493" stroke-linecap="round" stroke-linejoin="round" d="M203.677,68.514
		c0,12.158,9.842,22,21.994,22"/>
	<path fill="none" stroke="#000000" stroke-width="13.7493" stroke-linecap="round" stroke-linejoin="round" d="M99.591,90.508
		c12.138,0,22-9.842,22-22"/>
	
		<line fill="none" stroke="#000000" stroke-width="13.7493" stroke-linecap="round" stroke-linejoin="round" x1="132.722" y1="111.682" x2="140.832" y2="111.682"/>
	
		<line fill="none" stroke="#000000" stroke-width="13.7493" stroke-linecap="round" stroke-linejoin="round" x1="187.175" y1="111.682" x2="195.285" y2="111.682"/>
	<path fill="none" stroke="#000000" stroke-width="13.7493" stroke-linecap="round" stroke-linejoin="round" d="M184.557,55.315
		c0,7.271-15.4,13.749-34.373,13.749s-34.514-5.928-34.514-13.749"/>
	<path fill="none" stroke="#000000" stroke-width="13.7493" stroke-linecap="round" stroke-linejoin="round" d="M206,67.131
		c-11.815,0-21.443-2.598-21.443-5.774"/>
	
		<line fill="none" stroke="#000000" stroke-width="13.7493" stroke-linecap="round" stroke-linejoin="round" x1="113.199" y1="226.766" x2="214.674" y2="226.766"/>
	
		<line fill="none" stroke="#000000" stroke-width="13.7493" stroke-linecap="round" stroke-linejoin="round" x1="163.933" y1="230.887" x2="163.933" y2="308.429"/>
	<path fill="none" stroke="#000000" stroke-width="13.7493" stroke-linecap="round" stroke-linejoin="round" d="M259.493,107.01
		v80.563c-0.067,21.617-17.576,39.112-39.18,39.193H107.7c-21.644,0-39.187-17.55-39.187-39.193V107.01"/>
	<g>
		<path d="M264.24,281.46c0,3.8-3.08,6.87-6.88,6.87h-5.92v5.91c0,3.8-3.08,6.88-6.87,6.88c-3.801,0-6.88-3.08-6.88-6.88v-5.91
			h-6.04c-3.801,0-6.87-3.07-6.87-6.87s3.069-6.88,6.87-6.88h6.04v-6.04c0-3.79,3.079-6.87,6.88-6.87c3.79,0,6.87,3.08,6.87,6.87
			v6.04h5.92C261.16,274.58,264.24,277.66,264.24,281.46z"/>
	</g>
</g>
<path d="M89.514,90.702v24.244c-12,4.756-21-12.122-21-12.122S72.514,88.702,89.514,90.702z"/>
<path d="M238.504,89.515l-0.452,24.241c11.908,4.979,21.222-11.728,21.222-11.728S255.539,87.834,238.504,89.515z"/>
<path fill="none" stroke="#000000" stroke-width="14" stroke-linecap="round" stroke-linejoin="round" stroke-miterlimit="10" d="
	M128.333,166.888c0,0,35.67,29.446,70.333,0"/>
</svg>
